<svg xmlns="http://www.w3.org/2000/svg" viewBox="0 0 48.783 48.783"><defs><style>.a{fill:none;}.b{fill:#fff;}</style></defs><path class="a" d="M0,0H48.783V48.783H0Z"/><path class="b" d="M38.587,6.065H32.144L28.424,2h-12.2l-3.72,4.065H6.065A4.077,4.077,0,0,0,2,10.131V34.522a4.077,4.077,0,0,0,4.065,4.065H38.587a4.077,4.077,0,0,0,4.065-4.065V10.131A4.077,4.077,0,0,0,38.587,6.065Zm0,28.457H6.065V10.131H14.3l3.72-4.065h8.618l3.72,4.065h8.232ZM22.326,12.163A10.163,10.163,0,1,0,32.49,22.326,10.167,10.167,0,0,0,22.326,12.163Zm0,16.261a6.1,6.1,0,1,1,6.1-6.1A6.116,6.116,0,0,1,22.326,28.424Z" transform="translate(2.065 2.065)"/></svg>
