<svg xmlns="http://www.w3.org/2000/svg" viewBox="0 0 124.954 124.954"><defs><style>.a{fill:#00d7c2;}.b{fill:#fff;opacity:0.1;}</style></defs><g transform="translate(-653.292 -259.63)"><path class="a" d="M38.158,100.582A62.462,62.462,0,0,1,17.166,0l7.453,7.076A52.2,52.2,0,0,0,62.477,95.239h0v10.253h0A62.078,62.078,0,0,1,38.158,100.582Z" transform="translate(653.292 279.093)"/><path class="b" d="M45.312,124.954h0V114.7a52.224,52.224,0,0,0,0-104.449A51.753,51.753,0,0,0,7.453,26.538L0,19.462c.378-.4.759-.789,1.133-1.163A62.568,62.568,0,0,1,20.992,4.91a62.4,62.4,0,0,1,59.251,5.76,62.657,62.657,0,0,1,22.636,27.488,62.4,62.4,0,0,1-5.76,59.25A62.658,62.658,0,0,1,69.63,120.044,62.077,62.077,0,0,1,45.312,124.954Z" transform="translate(670.458 259.63)"/></g></svg>