<svg xmlns="http://www.w3.org/2000/svg" viewBox="0 0 48.783 48.783"><defs><style>.a{fill:none;}.b{fill:#fff;}</style></defs><path class="a" d="M0,0H48.783V48.783H0Z"/><path class="b" d="M6.065,10.131H2V38.587a4.077,4.077,0,0,0,4.065,4.065H34.522V38.587H6.065ZM38.587,2H14.2a4.077,4.077,0,0,0-4.065,4.065V30.457A4.077,4.077,0,0,0,14.2,34.522H38.587a4.077,4.077,0,0,0,4.065-4.065V6.065A4.077,4.077,0,0,0,38.587,2Zm-6.1,4.065V16.228L30.457,14.7l-2.033,1.524V6.065Zm6.1,24.392H14.2V6.065H24.359V24.359l6.1-4.573,6.1,4.573V6.065h2.033Z" transform="translate(2.065 2.065)"/></svg>