<svg xmlns="http://www.w3.org/2000/svg" viewBox="0 0 48.783 48.783"><defs><style>.a{fill:none;}.b{fill:#fff;}</style></defs><path class="a" d="M0,0H48.783V48.783H0Z"/><path class="b" d="M35.522,3H7.065A4.077,4.077,0,0,0,3,7.065V35.522a4.077,4.077,0,0,0,4.065,4.065H35.522a4.077,4.077,0,0,0,4.065-4.065V7.065A4.077,4.077,0,0,0,35.522,3Zm0,32.522H7.065V7.065H35.522ZM11.131,17.228H15.2V31.457H11.131Zm8.131-6.1h4.065V31.457H19.261Zm8.131,12.2h4.065v8.131H27.392Z" transform="translate(3.098 3.098)"/></svg>