<svg xmlns="http://www.w3.org/2000/svg" viewBox="0 0 48.783 48.783"><defs><style>.a{fill:none;}.b{fill:#fff;}</style></defs><path class="a" d="M0,0H48.783V48.783H0Z"/><path class="b" d="M42.685,11.163H36.242L32.522,7.1h-12.2v4.065H30.733l3.72,4.065h8.232V39.62H10.163V21.326H6.1V39.62a4.077,4.077,0,0,0,4.065,4.065H42.685a4.077,4.077,0,0,0,4.065-4.065V15.228A4.077,4.077,0,0,0,42.685,11.163ZM16.261,27.424A10.163,10.163,0,1,0,26.424,17.261,10.167,10.167,0,0,0,16.261,27.424Zm10.163-6.1a6.1,6.1,0,1,1-6.1,6.1A6.116,6.116,0,0,1,26.424,21.326ZM10.163,11.163h6.1V7.1h-6.1V1H6.1V7.1H0v4.065H6.1v6.1h4.065Z" transform="translate(0 1.033)"/></svg>